<svg width="32" height="32" viewBox="0 0 32 32" fill="none" xmlns="http://www.w3.org/2000/svg">
<path d="M21.586 2.66699H10.4127C5.55935 2.66699 2.66602 5.56033 2.66602 10.4137V21.5737C2.66602 26.4403 5.55935 29.3337 10.4127 29.3337H21.5727C26.426 29.3337 29.3193 26.4403 29.3193 21.587V10.4137C29.3327 5.56033 26.4394 2.66699 21.586 2.66699ZM19.7193 16.707L15.0127 21.4137C14.8127 21.6137 14.5593 21.707 14.306 21.707C14.0527 21.707 13.7993 21.6137 13.5993 21.4137C13.2127 21.027 13.2127 20.387 13.5993 20.0003L17.5993 16.0003L13.5993 12.0003C13.2127 11.6137 13.2127 10.9737 13.5993 10.587C13.986 10.2003 14.626 10.2003 15.0127 10.587L19.7193 15.2937C20.1193 15.6803 20.1193 16.3203 19.7193 16.707Z" fill="#999999"/>
</svg>
