<svg width="32" height="32" viewBox="0 0 32 32" fill="none" xmlns="http://www.w3.org/2000/svg">
<path d="M21.586 2.66699H10.4127C5.55935 2.66699 2.66602 5.56033 2.66602 10.4137V21.5737C2.66602 26.4403 5.55935 29.3337 10.4127 29.3337H21.5727C26.426 29.3337 29.3193 26.4403 29.3193 21.587V10.4137C29.3327 5.56033 26.4394 2.66699 21.586 2.66699ZM18.386 20.0003C18.7727 20.387 18.7727 21.027 18.386 21.4137C18.186 21.6137 17.9327 21.707 17.6793 21.707C17.426 21.707 17.1727 21.6137 16.9727 21.4137L12.266 16.707C11.8793 16.3203 11.8793 15.6803 12.266 15.2937L16.9727 10.587C17.3593 10.2003 17.9993 10.2003 18.386 10.587C18.7727 10.9737 18.7727 11.6137 18.386 12.0003L14.386 16.0003L18.386 20.0003Z" fill="#4CAE46"/>
</svg>
