<svg width="129" height="20" viewBox="0 0 129 20" fill="none" xmlns="http://www.w3.org/2000/svg">
    <path d="M11.6421 2.29976L13.239 5.49359C13.4568 5.93819 14.0375 6.36463 14.5275 6.4463L17.4219 6.92718C19.2728 7.23568 19.7084 8.57853 18.3746 9.90324L16.1244 12.1534C15.7433 12.5345 15.5346 13.2695 15.6526 13.7957L16.2968 16.5812C16.8049 18.7861 15.6344 19.639 13.6836 18.4867L10.9707 16.8807C10.4807 16.5903 9.67321 16.5903 9.17417 16.8807L6.4612 18.4867C4.5195 19.639 3.33996 18.777 3.84807 16.5812L4.49228 13.7957C4.61024 13.2695 4.40155 12.5345 4.02047 12.1534L1.77027 9.90324C0.445555 8.57853 0.872004 7.23568 2.72297 6.92718L5.61738 6.4463C6.09827 6.36463 6.67897 5.93819 6.89673 5.49359L8.49367 2.29976C9.36471 0.566746 10.7802 0.566746 11.6421 2.29976Z" fill="#FECD2B" stroke="#FED53A" stroke-width="0.952917" stroke-linecap="round" stroke-linejoin="round"/>
    <path d="M38.7906 2.29976L40.3875 5.49359C40.6052 5.93819 41.1859 6.36463 41.6759 6.4463L44.5703 6.92718C46.4213 7.23568 46.8568 8.57853 45.523 9.90324L43.2728 12.1534C42.8917 12.5345 42.683 13.2695 42.801 13.7957L43.4452 16.5812C43.9533 18.7861 42.7829 19.639 40.8321 18.4867L38.1191 16.8807C37.6292 16.5903 36.8216 16.5903 36.3226 16.8807L33.6096 18.4867C31.6679 19.639 30.4884 18.777 30.9965 16.5812L31.6407 13.7957C31.7587 13.2695 31.55 12.5345 31.1689 12.1534L28.9187 9.90324C27.594 8.57853 28.0204 7.23568 29.8714 6.92718L32.7658 6.4463C33.2467 6.36463 33.8274 5.93819 34.0452 5.49359L35.6421 2.29976C36.5132 0.566746 37.9286 0.566746 38.7906 2.29976Z" fill="#FECD2B" stroke="#FED53A" stroke-width="0.952917" stroke-linecap="round" stroke-linejoin="round"/>
    <path d="M65.939 2.29976L67.5359 5.49359C67.7537 5.93819 68.3344 6.36463 68.8243 6.4463L71.7187 6.92718C73.5697 7.23568 74.0052 8.57853 72.6715 9.90324L70.4213 12.1534C70.0402 12.5345 69.8315 13.2695 69.9494 13.7957L70.5936 16.5812C71.1018 18.7861 69.9313 19.639 67.9805 18.4867L65.2676 16.8807C64.7776 16.5903 63.9701 16.5903 63.471 16.8807L60.7581 18.4867C58.8164 19.639 57.6368 18.777 58.1449 16.5812L58.7892 13.7957C58.9071 13.2695 58.6984 12.5345 58.3173 12.1534L56.0671 9.90324C54.7424 8.57853 55.1689 7.23568 57.0198 6.92718L59.9143 6.4463C60.3951 6.36463 60.9758 5.93819 61.1936 5.49359L62.7905 2.29976C63.6616 0.566746 65.077 0.566746 65.939 2.29976Z" fill="#FECD2B" stroke="#FED53A" stroke-width="0.952917" stroke-linecap="round" stroke-linejoin="round"/>
</svg>
