<svg width="40" height="40" viewBox="0 0 40 40" fill="none" xmlns="http://www.w3.org/2000/svg">
<path d="M26.984 3.33301H13.0173C6.95065 3.33301 3.33398 6.94967 3.33398 13.0163V26.9663C3.33398 33.0497 6.95065 36.6663 13.0173 36.6663H26.9673C33.034 36.6663 36.6507 33.0497 36.6507 26.983V13.0163C36.6673 6.94967 33.0507 3.33301 26.984 3.33301ZM27.9673 16.1663L18.5173 25.6163C18.284 25.8497 17.9673 25.983 17.634 25.983C17.3007 25.983 16.984 25.8497 16.7507 25.6163L12.034 20.8997C11.5507 20.4163 11.5507 19.6163 12.034 19.133C12.5173 18.6497 13.3173 18.6497 13.8007 19.133L17.634 22.9663L26.2007 14.3997C26.684 13.9163 27.484 13.9163 27.9673 14.3997C28.4507 14.883 28.4507 15.6663 27.9673 16.1663Z" fill="#4CAE46"/>
</svg>
